adventprofmm_reg_it_krn.ufo
<glyph name="N" format="1">
  <advance width="611"/>
  <unicode hex="004E"/>
  <outline>
    <contour>
      <point x="614" y="698" type="line"/>
      <point x="558" y="698" type="line"/>
      <point x="452" y="102" type="line"/>
      <point x="179" y="698" type="line"/>
      <point x="123" y="698" type="line"/>
      <point x="0" y="0" type="line"/>
      <point x="56" y="0" type="line"/>
      <point x="160" y="595" type="line"/>
      <point x="435" y="0" type="line"/>
      <point x="491" y="0" type="line"/>
    </contour>
  </outline>
</glyph>
<glyph name="asciicircum" format="1">
  <advance width="418"/>
  <unicode hex="005E"/>
  <outline>
    <contour>
      <point x="485" y="770" type="line"/>
      <point x="380" y="897" type="line"/>
      <point x="225" y="769" type="line"/>
      <point x="257" y="730" type="line"/>
      <point x="366" y="821" type="line"/>
      <point x="440" y="733" type="line"/>
    </contour>
  </outline>
</glyph>
<glyph name="asciitilde" format="1">
  <advance width="350"/>
  <unicode hex="007E"/>
  <outline>
    <contour>
      <point x="328" y="305" type="curve"/>
      <point x="311" y="346" type="line"/>
      <point x="292" y="329"/>
      <point x="270" y="318"/>
      <point x="244" y="317" type="curve" smooth="yes"/>
      <point x="197" y="316"/>
      <point x="160" y="353"/>
      <point x="110" y="353" type="curve" smooth="yes"/>
      <point x="84" y="353"/>
      <point x="55" y="343"/>
      <point x="21" y="312" type="curve"/>
      <point x="36" y="271" type="line"/>
      <point x="64" y="293"/>
      <point x="87" y="299"/>
      <point x="108" y="298" type="curve" smooth="yes"/>
      <point x="153" y="296"/>
      <point x="190" y="262"/>
      <point x="237" y="262" type="curve" smooth="yes"/>
      <point x="262" y="261"/>
      <point x="291" y="272"/>
    </contour>
  </outline>
</glyph>
<glyph name="dieresis" format="1">
  <advance width="380"/>
  <unicode hex="00A8"/>
  <outline>
    <contour>
      <point x="160" y="740" type="curve" smooth="yes"/>
      <point x="142" y="740"/>
      <point x="124" y="725"/>
      <point x="121" y="706" type="curve" smooth="yes"/>
      <point x="118" y="687"/>
      <point x="130" y="673"/>
      <point x="148" y="673" type="curve" smooth="yes"/>
      <point x="166" y="673"/>
      <point x="185" y="687"/>
      <point x="188" y="706" type="curve" smooth="yes"/>
      <point x="191" y="725"/>
      <point x="178" y="740"/>
    </contour>
    <contour>
      <point x="318" y="740" type="curve" smooth="yes"/>
      <point x="299" y="740"/>
      <point x="282" y="725"/>
      <point x="279" y="706" type="curve" smooth="yes"/>
      <point x="276" y="687"/>
      <point x="287" y="673"/>
      <point x="306" y="673" type="curve" smooth="yes"/>
      <point x="325" y="673"/>
      <point x="342" y="687"/>
      <point x="345" y="706" type="curve" smooth="yes"/>
      <point x="348" y="725"/>
      <point x="337" y="740"/>
    </contour>
  </outline>
</glyph>
<glyph name="overscore" format="1">
  <advance width="374"/>
  <unicode hex="00AF"/>
  <outline>
    <contour>
      <point x="415" y="675" type="line"/>
      <point x="195" y="675" type="line"/>
      <point x="184" y="617" type="line"/>
      <point x="404" y="617" type="line"/>
    </contour>
  </outline>
</glyph>
<glyph name="acute" format="1">
  <advance width="238"/>
  <unicode hex="00B4"/>
  <outline>
    <contour>
      <point x="264" y="682" type="line"/>
      <point x="279" y="696"/>
      <point x="281" y="719"/>
      <point x="265" y="729" type="curve" smooth="yes"/>
      <point x="250" y="739"/>
      <point x="228" y="728"/>
      <point x="219" y="710" type="curve" smooth="yes"/>
      <point x="162" y="603" type="line"/>
      <point x="197" y="603" type="line"/>
    </contour>
  </outline>
</glyph>
<glyph name="IJ" format="1">
  <advance width="367"/>
  <unicode hex="0132"/>
  <outline>
    <contour>
      <point x="56" y="649" type="line"/>
      <point x="124" y="647" type="line"/>
      <point x="10" y="0" type="line"/>
      <point x="65" y="0" type="line"/>
      <point x="188" y="698" type="line"/>
      <point x="65" y="698" type="line"/>
    </contour>
    <contour>
      <point x="268" y="118" type="curve" smooth="yes"/>
      <point x="371" y="698" type="line"/>
      <point x="248" y="698" type="line"/>
      <point x="239" y="649" type="line"/>
      <point x="305" y="647" type="line"/>
      <point x="210" y="113" type="line" smooth="yes"/>
      <point x="196" y="34"/>
      <point x="153" y="0"/>
      <point x="109" y="0" type="curve"/>
      <point x="116" y="-37" type="line"/>
      <point x="159" y="-37"/>
      <point x="194" y="-21"/>
      <point x="220" y="10" type="curve" smooth="yes"/>
      <point x="244" y="36"/>
      <point x="260" y="73"/>
    </contour>
  </outline>
</glyph>
<glyph name="circumflex" format="1">
  <advance width="418"/>
  <unicode hex="02C6"/>
  <outline>
    <contour>
      <point x="432" y="642" type="line"/>
      <point x="325" y="769" type="line"/>
      <point x="172" y="641" type="line"/>
      <point x="204" y="603" type="line"/>
      <point x="312" y="693" type="line"/>
      <point x="385" y="605" type="line"/>
    </contour>
  </outline>
</glyph>
<glyph name="breve" format="1">
  <advance width="381"/>
  <unicode hex="02D8"/>
  <outline>
    <contour>
      <point x="392" y="702" type="line"/>
      <point x="347" y="702" type="line"/>
      <point x="346" y="695" type="line" smooth="yes"/>
      <point x="339" y="657"/>
      <point x="305" y="627"/>
      <point x="267" y="627" type="curve" smooth="yes"/>
      <point x="230" y="627"/>
      <point x="204" y="657"/>
      <point x="211" y="695" type="curve" smooth="yes"/>
      <point x="212" y="702" type="line"/>
      <point x="167" y="702" type="line"/>
      <point x="166" y="695" type="line" smooth="yes"/>
      <point x="155" y="632"/>
      <point x="197" y="582"/>
      <point x="259" y="582" type="curve" smooth="yes"/>
      <point x="321" y="582"/>
      <point x="380" y="632"/>
      <point x="391" y="695" type="curve" smooth="yes"/>
    </contour>
  </outline>
</glyph>
<glyph name="ogonek" format="1">
  <advance width="369"/>
  <unicode hex="02DB"/>
  <outline>
    <contour>
      <point x="157" y="11" type="line"/>
      <point x="113" y="8" type="line"/>
      <point x="112" y="3" type="line"/>
      <point x="28" y="-108" type="line" smooth="yes"/>
      <point x="-23" y="-180"/>
      <point x="11" y="-251"/>
      <point x="105" y="-226" type="curve" smooth="yes"/>
      <point x="125" y="-220"/>
      <point x="214" y="-190"/>
      <point x="215" y="-189" type="curve"/>
      <point x="204" y="-150" type="line"/>
      <point x="204" y="-150"/>
      <point x="160" y="-164"/>
      <point x="101" y="-184" type="curve" smooth="yes"/>
      <point x="49" y="-200"/>
      <point x="29" y="-168"/>
      <point x="63" y="-122" type="curve" smooth="yes"/>
      <point x="156" y="2" type="line"/>
    </contour>
  </outline>
</glyph>
<glyph name="gravecomb" format="1">
  <advance width="130"/>
  <unicode hex="0300"/>
  <outline>
    <contour>
      <point x="76" y="608" type="line"/>
      <point x="112" y="608" type="line"/>
      <point x="92" y="715" type="line"/>
      <point x="90" y="734"/>
      <point x="71" y="745"/>
      <point x="51" y="735" type="curve" smooth="yes"/>
      <point x="32" y="725"/>
      <point x="27" y="702"/>
      <point x="37" y="687" type="curve"/>
    </contour>
  </outline>
</glyph>
<glyph name="circumflexcomb" format="1">
  <advance width="308"/>
  <unicode hex="0302"/>
  <outline>
    <contour>
      <point x="170" y="693" type="line"/>
      <point x="243" y="605" type="line"/>
      <point x="290" y="642" type="line"/>
      <point x="183" y="769" type="line"/>
      <point x="30" y="641" type="line"/>
      <point x="62" y="603" type="line"/>
    </contour>
  </outline>
</glyph>
<glyph name="tildecomb" format="1">
  <advance width="306"/>
  <unicode hex="0303"/>
  <outline>
    <contour>
      <point x="288" y="647" type="curve"/>
      <point x="276" y="694" type="line"/>
      <point x="260" y="683"/>
      <point x="238" y="673"/>
      <point x="219" y="674" type="curve"/>
      <point x="206" y="674"/>
      <point x="164" y="700"/>
      <point x="116" y="700" type="curve" smooth="yes"/>
      <point x="89" y="700"/>
      <point x="60" y="692"/>
      <point x="32" y="668" type="curve"/>
      <point x="46" y="621" type="line"/>
      <point x="62" y="632"/>
      <point x="75" y="640"/>
      <point x="95" y="641" type="curve" smooth="yes"/>
      <point x="126" y="643"/>
      <point x="165" y="617"/>
      <point x="211" y="617" type="curve" smooth="yes"/>
      <point x="235" y="617"/>
      <point x="261" y="624"/>
    </contour>
  </outline>
</glyph>
<glyph name="macroncomb" format="1">
  <advance width="282"/>
  <unicode hex="0304"/>
  <outline>
    <contour>
      <point x="33" y="617" type="line"/>
      <point x="253" y="617" type="line"/>
      <point x="264" y="675" type="line"/>
      <point x="44" y="675" type="line"/>
    </contour>
  </outline>
</glyph>
<glyph name="brevecomb" format="1">
  <advance width="274"/>
  <unicode hex="0306"/>
  <outline>
    <contour>
      <point x="259" y="695" type="curve" smooth="yes"/>
      <point x="260" y="702" type="line"/>
      <point x="215" y="702" type="line"/>
      <point x="214" y="695" type="line" smooth="yes"/>
      <point x="207" y="657"/>
      <point x="173" y="627"/>
      <point x="135" y="627" type="curve" smooth="yes"/>
      <point x="98" y="627"/>
      <point x="72" y="657"/>
      <point x="79" y="695" type="curve" smooth="yes"/>
      <point x="80" y="702" type="line"/>
      <point x="35" y="702" type="line"/>
      <point x="34" y="695" type="line" smooth="yes"/>
      <point x="23" y="632"/>
      <point x="65" y="582"/>
      <point x="127" y="582" type="curve" smooth="yes"/>
      <point x="189" y="582"/>
      <point x="248" y="632"/>
    </contour>
  </outline>
</glyph>
<glyph name="dotaccentcomb" format="1">
  <advance width="120"/>
  <unicode hex="0307"/>
  <outline>
    <contour>
      <point x="73" y="748" type="curve" smooth="yes"/>
      <point x="54" y="748"/>
      <point x="38" y="733"/>
      <point x="34" y="714" type="curve" smooth="yes"/>
      <point x="31" y="696"/>
      <point x="43" y="681"/>
      <point x="62" y="681" type="curve" smooth="yes"/>
      <point x="80" y="681"/>
      <point x="97" y="696"/>
      <point x="100" y="714" type="curve" smooth="yes"/>
      <point x="104" y="733"/>
      <point x="91" y="748"/>
    </contour>
  </outline>
</glyph>
<glyph name="dieresiscomb" format="1">
  <advance width="279"/>
  <unicode hex="0308"/>
  <outline>
    <contour>
      <point x="74" y="740" type="curve" smooth="yes"/>
      <point x="56" y="740"/>
      <point x="38" y="725"/>
      <point x="35" y="706" type="curve" smooth="yes"/>
      <point x="32" y="687"/>
      <point x="44" y="673"/>
      <point x="62" y="673" type="curve" smooth="yes"/>
      <point x="80" y="673"/>
      <point x="99" y="687"/>
      <point x="102" y="706" type="curve" smooth="yes"/>
      <point x="105" y="725"/>
      <point x="92" y="740"/>
    </contour>
    <contour>
      <point x="232" y="740" type="curve" smooth="yes"/>
      <point x="213" y="740"/>
      <point x="196" y="725"/>
      <point x="193" y="706" type="curve" smooth="yes"/>
      <point x="190" y="687"/>
      <point x="201" y="673"/>
      <point x="220" y="673" type="curve" smooth="yes"/>
      <point x="239" y="673"/>
      <point x="256" y="687"/>
      <point x="259" y="706" type="curve" smooth="yes"/>
      <point x="262" y="725"/>
      <point x="251" y="740"/>
    </contour>
  </outline>
</glyph>
<glyph name="fraction" format="1">
  <advance width="564"/>
  <unicode hex="2044"/>
  <outline>
    <contour>
      <point x="11" y="-113" type="line"/>
      <point x="67" y="-113" type="line"/>
      <point x="554" y="815" type="line"/>
      <point x="492" y="815" type="line"/>
    </contour>
  </outline>
</glyph>
<glyph name="caroncomb" format="1">
  <advance width="299"/>
  <outline>
    <contour>
      <point x="24" y="713" type="line"/>
      <point x="130" y="587" type="line"/>
      <point x="285" y="715" type="line"/>
      <point x="252" y="752" type="line"/>
      <point x="143" y="663" type="line"/>
      <point x="70" y="751" type="line"/>
    </contour>
  </outline>
</glyph>
<glyph name="cedillacomb" format="1">
  <advance width="213"/>
  <outline>
    <contour>
      <point x="86" y="-44" type="curve"/>
      <point x="120" y="0" type="line"/>
      <point x="70" y="0" type="line"/>
      <point x="18" y="-69" type="line"/>
      <point x="25" y="-98" type="line"/>
      <point x="53" y="-96"/>
      <point x="78" y="-92"/>
      <point x="100" y="-91" type="curve" smooth="yes"/>
      <point x="134" y="-91"/>
      <point x="157" y="-98"/>
      <point x="151" y="-133" type="curve" smooth="yes"/>
      <point x="144" y="-173"/>
      <point x="110" y="-185"/>
      <point x="71" y="-184" type="curve" smooth="yes"/>
      <point x="44" y="-184"/>
      <point x="17" y="-178"/>
      <point x="-9" y="-173" type="curve"/>
      <point x="-22" y="-202"/>
      <point x="-18" y="-193"/>
      <point x="-29" y="-221" type="curve"/>
      <point x="-26" y="-221"/>
      <point x="21" y="-233"/>
      <point x="68" y="-233" type="curve" smooth="yes"/>
      <point x="147" y="-233"/>
      <point x="193" y="-184"/>
      <point x="201" y="-135" type="curve" smooth="yes"/>
      <point x="210" y="-85"/>
      <point x="179" y="-35"/>
      <point x="112" y="-42" type="curve" smooth="yes"/>
      <point x="103" y="-43"/>
      <point x="94" y="-43"/>
    </contour>
  </outline>
</glyph>
<glyph name="commaturnedabovecomb" format="1">
  <advance width="97"/>
  <outline>
    <contour>
      <point x="113" y="716" type="curve"/>
      <point x="98" y="728" type="line"/>
      <point x="75" y="711"/>
      <point x="36" y="671"/>
      <point x="24" y="608" type="curve" smooth="yes"/>
      <point x="21" y="588"/>
      <point x="33" y="575"/>
      <point x="52" y="575" type="curve" smooth="yes"/>
      <point x="71" y="575"/>
      <point x="88" y="590"/>
      <point x="91" y="608" type="curve" smooth="yes"/>
      <point x="94" y="625"/>
      <point x="84" y="638"/>
      <point x="70" y="641" type="curve"/>
      <point x="75" y="662"/>
      <point x="87" y="690"/>
    </contour>
  </outline>
</glyph>
<glyph name="hungarumlautcomb" format="1">
  <advance width="266"/>
  <outline>
    <contour>
      <point x="24" y="580" type="line"/>
      <point x="59" y="580" type="line"/>
      <point x="127" y="658" type="line" smooth="yes"/>
      <point x="141" y="673"/>
      <point x="144" y="696"/>
      <point x="128" y="706" type="curve" smooth="yes"/>
      <point x="113" y="716"/>
      <point x="90" y="705"/>
      <point x="80" y="686" type="curve" smooth="yes"/>
    </contour>
    <contour>
      <point x="136" y="580" type="line"/>
      <point x="171" y="580" type="line"/>
      <point x="238" y="658" type="line"/>
      <point x="253" y="673"/>
      <point x="255" y="696"/>
      <point x="239" y="706" type="curve" smooth="yes"/>
      <point x="224" y="716"/>
      <point x="202" y="705"/>
      <point x="191" y="686" type="curve" smooth="yes"/>
    </contour>
  </outline>
</glyph>
<glyph name="ogonekcomb" format="1">
  <advance width="207"/>
  <outline>
    <contour>
      <point x="43" y="-122" type="curve" smooth="yes"/>
      <point x="136" y="2" type="line"/>
      <point x="137" y="11" type="line"/>
      <point x="93" y="8" type="line"/>
      <point x="92" y="3" type="line"/>
      <point x="8" y="-108" type="line" smooth="yes"/>
      <point x="-43" y="-180"/>
      <point x="-9" y="-251"/>
      <point x="85" y="-226" type="curve" smooth="yes"/>
      <point x="105" y="-220"/>
      <point x="194" y="-190"/>
      <point x="195" y="-189" type="curve"/>
      <point x="184" y="-150" type="line"/>
      <point x="184" y="-150"/>
      <point x="140" y="-164"/>
      <point x="81" y="-184" type="curve" smooth="yes"/>
      <point x="29" y="-200"/>
      <point x="9" y="-168"/>
    </contour>
  </outline>
</glyph>
<glyph name="ringcomb" format="1">
  <advance width="281"/>
  <outline>
    <contour>
      <point x="168" y="773" type="curve" smooth="yes"/>
      <point x="105" y="773"/>
      <point x="45" y="723"/>
      <point x="34" y="660" type="curve" smooth="yes"/>
      <point x="23" y="596"/>
      <point x="65" y="546"/>
      <point x="128" y="546" type="curve" smooth="yes"/>
      <point x="190" y="546"/>
      <point x="250" y="596"/>
      <point x="261" y="660" type="curve" smooth="yes"/>
      <point x="272" y="723"/>
      <point x="230" y="773"/>
    </contour>
    <contour>
      <point x="160" y="729" type="curve" smooth="yes"/>
      <point x="198" y="729"/>
      <point x="224" y="698"/>
      <point x="217" y="660" type="curve" smooth="yes"/>
      <point x="210" y="621"/>
      <point x="174" y="590"/>
      <point x="136" y="590" type="curve" smooth="yes"/>
      <point x="97" y="590"/>
      <point x="71" y="621"/>
      <point x="78" y="660" type="curve" smooth="yes"/>
      <point x="85" y="698"/>
      <point x="121" y="729"/>
    </contour>
  </outline>
</glyph>
